<svg width="17" height="16" viewBox="0 0 17 16" fill="none" xmlns="http://www.w3.org/2000/svg">
<path d="M4.5 16C3.25736 16 2.25 14.9926 2.25 13.75V11.5H4.5V16ZM2.25 9.25C2.25 8.00736 3.25736 7 4.5 7H6.75V11.5H4.5C3.25736 11.5 2.25 10.4926 2.25 9.25ZM2.25 4.75C2.25 3.50736 3.25736 2.5 4.5 2.5H6.75V7H4.5C3.25736 7 2.25 5.99264 2.25 4.75ZM6.75 0.25H9C10.2426 0.25 11.25 1.25736 11.25 2.5C11.25 3.74264 10.2426 4.75 9 4.75H6.75V0.25ZM11.25 9.25C11.25 10.4926 10.2426 11.5 9 11.5C7.75736 11.5 6.75 10.4926 6.75 9.25C6.75 8.00736 7.75736 7 9 7C10.2426 7 11.25 8.00736 11.25 9.25Z" transform="translate(2.5 0)" fill="#1C212B"/>
</svg>
